<svg width="800" height="800" viewBox="0 0 800 800" fill="none" xmlns="http://www.w3.org/2000/svg">
<rect width="800" height="800" rx="160" fill="url(#paint0_linear_240_9202)"/>
<path d="M245.693 310.187C266.621 244.562 327.925 197.032 400.33 197.032C472.735 197.032 533.988 244.536 554.941 310.136C588.349 299.003 620.687 293.73 649.322 291.708C619.485 181.803 519.338 101 400.33 101C281.322 101 181.123 181.854 151.314 291.759C179.949 293.807 212.285 299.079 245.693 310.187Z" fill="white"/>
<path d="M402.045 699C384.281 699 369.045 697.746 357.458 696.361C351.384 646.145 347.836 519.349 444.895 420.629C520.772 343.435 614.131 327.234 679.082 327.234C696.592 327.234 711.652 328.437 723.108 329.793C729.209 380.804 732.503 509.828 632.453 608.727C556.987 683.337 465.492 699 402.045 699Z" fill="white"/>
<path d="M305.365 687.15C252.638 673.045 206.571 646.733 168.186 608.803C68.1402 509.905 71.458 380.906 77.5577 329.895C88.966 328.513 104.024 327.336 121.583 327.336C186.536 327.336 279.895 343.537 355.771 420.706C359.982 424.981 364.065 429.383 368.098 434.016C303.885 528.154 300.848 631.274 305.391 687.15H305.365Z" fill="white"/>
<defs>
<linearGradient id="paint0_linear_240_9202" x1="669.5" y1="1.74628e-05" x2="113" y2="756.5" gradientUnits="userSpaceOnUse">
<stop stop-color="#44175B"/>
<stop offset="1" stop-color="#742B9A"/>
</linearGradient>
</defs>
</svg>
