<svg width="277" height="67" viewBox="0 0 277 67" fill="none" xmlns="http://www.w3.org/2000/svg">
<path d="M18.9756 23.3481C21.3022 16.0734 28.1173 10.8046 36.1666 10.8046C44.2159 10.8046 51.0253 16.0705 53.3547 23.3425C57.0687 22.1082 60.6635 21.5238 63.8469 21.2996C60.5301 9.11642 49.3967 0.15918 36.1666 0.15918C22.9364 0.15918 11.7973 9.12209 8.4834 21.3053C11.6668 21.5323 15.2616 22.1168 18.9756 23.3481Z" fill="white"/>
<path d="M36.357 66.449C34.3822 66.449 32.6884 66.31 31.4003 66.1568C30.725 60.5901 30.3306 46.5343 41.1207 35.5909C49.5559 27.0337 59.9346 25.2378 67.1555 25.2378C69.1018 25.2378 70.7758 25.3711 72.0497 25.5215C72.7279 31.1762 73.0939 45.4788 61.9718 56.442C53.582 64.7126 43.4104 66.449 36.357 66.449Z" fill="white"/>
<path d="M25.609 65.1353C19.7472 63.572 14.6259 60.6553 10.3587 56.4505C-0.763367 45.4873 -0.394523 31.1875 0.283583 25.5328C1.55184 25.3796 3.22582 25.2491 5.17786 25.2491C12.3987 25.2491 22.7774 27.0451 31.2126 35.5994C31.6807 36.0732 32.1347 36.5613 32.583 37.0748C25.4444 47.5103 25.1068 58.9416 25.6118 65.1353H25.609Z" fill="white"/>
<path d="M102.513 50.7164H115.391V58.3061H92.6816V17.946H102.513V50.7164Z" fill="white"/>
<path d="M126.227 56.7541C123.716 55.412 121.741 53.4969 120.306 51.0058C118.867 48.5146 118.149 45.6008 118.149 42.267C118.149 38.9332 118.876 36.0676 120.334 33.5566C121.79 31.0456 123.784 29.122 126.312 27.7771C128.843 26.4351 131.677 25.7655 134.821 25.7655C137.965 25.7655 140.799 26.4379 143.33 27.7771C145.861 29.1191 147.853 31.0456 149.308 33.5566C150.764 36.0676 151.493 38.9701 151.493 42.267C151.493 45.5639 150.755 48.4664 149.28 50.9774C147.804 53.4884 145.793 55.4149 143.242 56.7569C140.691 58.0989 137.846 58.7685 134.705 58.7685C131.564 58.7685 128.735 58.0989 126.224 56.7569L126.227 56.7541ZM139.508 48.1855C140.83 46.8066 141.492 44.8319 141.492 42.2642C141.492 39.6964 140.85 37.7217 139.565 36.3428C138.28 34.9639 136.699 34.2744 134.821 34.2744C132.943 34.2744 131.314 34.9554 130.049 36.3144C128.783 37.6763 128.151 39.6595 128.151 42.2642C128.151 44.8688 128.772 46.8066 130.021 48.1855C131.266 49.5644 132.827 50.2539 134.705 50.2539C136.583 50.2539 138.183 49.5644 139.505 48.1855H139.508Z" fill="white"/>
<path d="M162.85 56.7541C160.339 55.412 158.364 53.4969 156.929 51.0058C155.49 48.5146 154.772 45.6008 154.772 42.267C154.772 38.9332 155.499 36.0676 156.957 33.5566C158.413 31.0456 160.407 29.122 162.935 27.7771C165.466 26.4351 168.301 25.7655 171.444 25.7655C174.588 25.7655 177.422 26.4379 179.953 27.7771C182.484 29.1191 184.476 31.0456 185.931 33.5566C187.387 36.0676 188.116 38.9701 188.116 42.267C188.116 45.5639 187.378 48.4664 185.903 50.9774C184.428 53.4884 182.416 55.4149 179.865 56.7569C177.315 58.0989 174.469 58.7685 171.328 58.7685C168.187 58.7685 165.358 58.0989 162.847 56.7569L162.85 56.7541ZM176.131 48.1855C177.454 46.8066 178.115 44.8319 178.115 42.2642C178.115 39.6964 177.473 37.7217 176.188 36.3428C174.903 34.9639 173.322 34.2744 171.444 34.2744C169.566 34.2744 167.937 34.9554 166.672 36.3144C165.407 37.6763 164.774 39.6595 164.774 42.2642C164.774 44.8688 165.395 46.8066 166.644 48.1855C167.889 49.5644 169.45 50.2539 171.328 50.2539C173.206 50.2539 174.806 49.5644 176.129 48.1855H176.131Z" fill="white"/>
<path d="M193.436 33.5254C194.795 31.0343 196.693 29.1191 199.127 27.7771C201.561 26.4351 204.35 25.7655 207.491 25.7655C211.515 25.7655 214.88 26.8209 217.581 28.9262C220.282 31.0343 222.055 34.0049 222.898 37.838H212.434C211.551 35.3866 209.846 34.1581 207.315 34.1581C205.514 34.1581 204.075 34.8589 203.003 36.2577C201.93 37.6564 201.394 39.6595 201.394 42.2642C201.394 44.8688 201.93 46.8747 203.003 48.2735C204.075 49.6723 205.514 50.3731 207.315 50.3731C209.846 50.3731 211.551 49.1474 212.434 46.6931H222.898C222.055 50.4497 220.273 53.4004 217.552 55.5482C214.831 57.696 211.478 58.7685 207.491 58.7685C204.348 58.7685 201.559 58.0989 199.127 56.7569C196.693 55.4149 194.795 53.4997 193.436 51.0086C192.074 48.5175 191.396 45.6036 191.396 42.2698C191.396 38.936 192.076 36.0222 193.436 33.5311V33.5254Z" fill="white"/>
<path d="M228.045 33.5254C229.29 31.0343 230.987 29.1191 233.132 27.7771C235.277 26.4351 237.674 25.7655 240.319 25.7655C242.58 25.7655 244.563 26.2251 246.268 27.1444C247.973 28.0637 249.287 29.2723 250.206 30.7676V26.2251H260.038V58.306H250.206V53.7636C249.247 55.2588 247.917 56.4647 246.212 57.3868C244.506 58.306 242.523 58.7657 240.262 58.7657C237.654 58.7657 235.28 58.0847 233.132 56.7257C230.984 55.3666 229.29 53.4288 228.045 50.9178C226.799 48.4068 226.175 45.5043 226.175 42.2074C226.175 38.9105 226.796 36.0193 228.045 33.5254ZM248.169 36.4591C246.807 35.0405 245.15 34.3312 243.196 34.3312C241.241 34.3312 239.584 35.032 238.222 36.4307C236.86 37.8295 236.182 39.756 236.182 42.2074C236.182 44.6588 236.863 46.6052 238.222 48.0437C239.581 49.4822 241.241 50.2 243.196 50.2C245.15 50.2 246.807 49.4907 248.169 48.072C249.528 46.6534 250.209 44.7184 250.209 42.2642C250.209 39.8099 249.528 37.8749 248.169 36.4563V36.4591Z" fill="white"/>
<path d="M276.999 15.7613V58.306H267.168V15.7613H276.999Z" fill="white"/>
</svg>
