<svg width="100" height="24" viewBox="0 0 100 24" fill="none" xmlns="http://www.w3.org/2000/svg">
<path d="M6.85031 8.39548C7.69023 5.76168 10.1506 3.85413 13.0565 3.85413C15.9624 3.85413 18.4206 5.76066 19.2616 8.39343C20.6024 7.94658 21.9001 7.73498 23.0494 7.65383C21.852 3.24294 17.8327 0 13.0565 0C8.28021 0 4.25887 3.24499 3.0625 7.65588C4.21175 7.73806 5.50952 7.94967 6.85031 8.39548Z" fill="#C7C7CC"/>
<path d="M13.1252 24.0005C12.4123 24.0005 11.8008 23.9501 11.3358 23.8947C11.092 21.8793 10.9496 16.7904 14.845 12.8284C17.8902 9.73031 21.637 9.08008 24.2438 9.08008C24.9465 9.08008 25.5508 9.12836 26.0107 9.1828C26.2555 11.2301 26.3876 16.4083 22.3724 20.3775C19.3436 23.3718 15.6716 24.0005 13.1252 24.0005Z" fill="#C7C7CC"/>
<path d="M9.24516 23.5247C7.12898 22.9587 5.28014 21.9027 3.73962 20.3803C-0.275585 16.4112 -0.142427 11.234 0.102377 9.18671C0.560233 9.13124 1.16456 9.08398 1.86927 9.08398C4.47608 9.08398 8.22292 9.73422 11.2681 12.8313C11.4371 13.0028 11.601 13.1795 11.7629 13.3654C9.18575 17.1436 9.06386 21.2822 9.24618 23.5247H9.24516Z" fill="#C7C7CC"/>
<path d="M37.0081 18.3039H41.6574V21.0517H33.459V6.43945H37.0081V18.3039Z" fill="#C7C7CC"/>
<path d="M45.5695 20.4888C44.663 20.003 43.9501 19.3096 43.4318 18.4077C42.9125 17.5058 42.6533 16.4508 42.6533 15.2439C42.6533 14.0369 42.9155 12.9994 43.442 12.0903C43.9675 11.1812 44.6876 10.4847 45.6002 9.99783C46.5139 9.51196 47.5371 9.26953 48.672 9.26953C49.8069 9.26953 50.8302 9.51298 51.7439 9.99783C52.6575 10.4837 53.3766 11.1812 53.902 12.0903C54.4275 12.9994 54.6907 14.0502 54.6907 15.2439C54.6907 16.4375 54.4244 17.4883 53.8918 18.3974C53.3592 19.3065 52.6329 20.004 51.7121 20.4899C50.7913 20.9757 49.7639 21.2182 48.63 21.2182C47.4961 21.2182 46.4749 20.9757 45.5684 20.4899L45.5695 20.4888ZM50.3641 17.3866C50.8415 16.8874 51.0801 16.1725 51.0801 15.2428C51.0801 14.3132 50.8486 13.5982 50.3846 13.099C49.9206 12.5998 49.3501 12.3502 48.672 12.3502C47.9939 12.3502 47.406 12.5967 46.9492 13.0887C46.4923 13.5818 46.2639 14.2998 46.2639 15.2428C46.2639 16.1858 46.4882 16.8874 46.9389 17.3866C47.3886 17.8859 47.952 18.1355 48.63 18.1355C49.3081 18.1355 49.8858 17.8859 50.3631 17.3866H50.3641Z" fill="#C7C7CC"/>
<path d="M58.7902 20.4888C57.8837 20.003 57.1708 19.3096 56.6525 18.4077C56.1332 17.5058 55.874 16.4508 55.874 15.2439C55.874 14.0369 56.1362 12.9994 56.6627 12.0903C57.1882 11.1812 57.9083 10.4847 58.8209 9.99783C59.7346 9.51196 60.7578 9.26953 61.8927 9.26953C63.0276 9.26953 64.0509 9.51298 64.9646 9.99783C65.8782 10.4837 66.5973 11.1812 67.1227 12.0903C67.6482 12.9994 67.9114 14.0502 67.9114 15.2439C67.9114 16.4375 67.6451 17.4883 67.1125 18.3974C66.5799 19.3065 65.8536 20.004 64.9328 20.4899C64.012 20.9757 62.9846 21.2182 61.8507 21.2182C60.7168 21.2182 59.6956 20.9757 58.7891 20.4899L58.7902 20.4888ZM63.5849 17.3866C64.0622 16.8874 64.3008 16.1725 64.3008 15.2428C64.3008 14.3132 64.0693 13.5982 63.6053 13.099C63.1413 12.5998 62.5708 12.3502 61.8927 12.3502C61.2147 12.3502 60.6267 12.5967 60.1699 13.0887C59.713 13.5818 59.4846 14.2998 59.4846 15.2428C59.4846 16.1858 59.709 16.8874 60.1596 17.3866C60.6093 17.8859 61.1727 18.1355 61.8507 18.1355C62.5288 18.1355 63.1065 17.8859 63.5838 17.3866H63.5849Z" fill="#C7C7CC"/>
<path d="M69.8322 12.079C70.3228 11.1771 71.008 10.4837 71.8869 9.99783C72.7657 9.51196 73.7726 9.26953 74.9065 9.26953C76.3589 9.26953 77.5737 9.65166 78.5488 10.4139C79.524 11.1771 80.1641 12.2526 80.4684 13.6404H76.6908C76.3722 12.7528 75.7566 12.3081 74.843 12.3081C74.1926 12.3081 73.6732 12.5618 73.2861 13.0682C72.8989 13.5746 72.7053 14.2998 72.7053 15.2428C72.7053 16.1858 72.8989 16.9121 73.2861 17.4185C73.6732 17.9249 74.1926 18.1786 74.843 18.1786C75.7566 18.1786 76.3722 17.7349 76.6908 16.8463H80.4684C80.1641 18.2064 79.5209 19.2747 78.5386 20.0523C77.5563 20.8299 76.3456 21.2182 74.9065 21.2182C73.7716 21.2182 72.7647 20.9757 71.8869 20.4899C71.008 20.004 70.3228 19.3106 69.8322 18.4087C69.3405 17.5068 69.0957 16.4519 69.0957 15.2449C69.0957 14.0379 69.3415 12.9829 69.8322 12.081V12.079Z" fill="#C7C7CC"/>
<path d="M82.3264 12.079C82.776 11.1771 83.3886 10.4837 84.1629 9.99783C84.9373 9.51196 85.8028 9.26953 86.7574 9.26953C87.5738 9.26953 88.2898 9.43594 88.9054 9.76876C89.521 10.1016 89.9952 10.5392 90.3271 11.0805V9.43594H93.8762V21.0507H90.3271V19.4062C89.9809 19.9475 89.5005 20.3841 88.8849 20.7179C88.2693 21.0507 87.5533 21.2171 86.7369 21.2171C85.7956 21.2171 84.9383 20.9706 84.1629 20.4786C83.3875 19.9865 82.776 19.2849 82.3264 18.3758C81.8767 17.4668 81.6514 16.4159 81.6514 15.2223C81.6514 14.0286 81.8757 12.9819 82.3264 12.079ZM89.5916 13.1411C89.1 12.6275 88.5018 12.3707 87.7961 12.3707C87.0903 12.3707 86.4921 12.6244 86.0005 13.1309C85.5088 13.6373 85.264 14.3348 85.264 15.2223C85.264 16.1098 85.5099 16.8145 86.0005 17.3353C86.4911 17.8561 87.0903 18.116 87.7961 18.116C88.5018 18.116 89.1 17.8592 89.5916 17.3455C90.0823 16.8319 90.3281 16.1314 90.3281 15.2428C90.3281 14.3543 90.0823 13.6537 89.5916 13.1401V13.1411Z" fill="#C7C7CC"/>
<path d="M99.9993 5.64844V21.0516H96.4502V5.64844H99.9993Z" fill="#C7C7CC"/>
</svg>
