<?xml version="1.0" encoding="UTF-8"?>
<svg id="Capa_1" data-name="Capa 1" xmlns="http://www.w3.org/2000/svg" version="1.1" viewBox="0 0 1600 1600">
  <defs>
    <style>
      .cls-1 {
        fill: #463231;
      }

      .cls-1, .cls-2, .cls-3, .cls-4, .cls-5, .cls-6, .cls-7, .cls-8, .cls-9, .cls-10, .cls-11, .cls-12, .cls-13, .cls-14 {
        stroke-width: 0px;
      }

      .cls-2 {
        fill: #feffff;
      }

      .cls-3 {
        fill: #282828;
      }

      .cls-4 {
        fill: none;
      }

      .cls-5 {
        fill: #4c4c4c;
      }

      .cls-6 {
        fill: #ddd;
      }

      .cls-7 {
        fill: #aaa;
      }

      .cls-8 {
        fill: #4f4f4f;
      }

      .cls-9 {
        fill: #c6c6c6;
      }

      .cls-10 {
        fill: #ededed;
      }

      .cls-11 {
        fill: #3a3a3a;
      }

      .cls-12 {
        fill: #8c8c8c;
      }

      .cls-13 {
        fill: #353535;
      }

      .cls-14 {
        fill: #dda08c;
      }
    </style>
  </defs>
  <path class="cls-4" d="M920.8,1559.7"/>
  <g>
    <path class="cls-10" d="M858.9,891.3c-22.7,8.3-43.1,11.2-58.3,12.2-15.2-1-35.6-4-58.3-12.2-30-10.9-51.6-26.5-65-37.9v171.5s110.8,119.4,122.8,123.7c0,0,0,0,0,0,0,0,.3.1.5,0,.2,0,.4,0,.5,0,0,0,0,0,0,0,12-4.3,122.8-123.7,122.8-123.7v-171.5c-13.3,11.4-35,27-65,37.9Z"/>
    <ellipse class="cls-5" cx="807.5" cy="277.8" rx="245" ry="210.6"/>
    <path class="cls-12" d="M1251.6,390.2c1.5,16-.5,49.7-7.1,92.1-5.2,33-18.8,63.4-39.3,87.1-10.4,12-21.3,23.6-32.5,34.7-98.3,97-225.8,155.6-365.1,155.6s-268.1-59.1-366.5-157c-10.8-10.7-21.2-21.8-31.2-33.4-20.4-23.6-34-54-39.1-86.9-4.5-28.8-14.6-59.8-7.1-92.1,22.1-94.9,159.8-129.4,170.2-131.8,34.5-8.2,71.1-6.7,144.4-3.7,61.1,2.5,76.4,7.9,129.4,8.6,33.7.4,60-1.3,133-9.1,202.9-21.6,222-31.7,250.3-11.7,50.1,35.5,57.6,114.7,60.7,147.7Z"/>
    <path class="cls-10" d="M962.6,357.2c-54.7-36.1-121.3-36.1-161.4-36.1-40.2,0-106.5,0-161,36.1-125.1,82.6-135.7,319.6-46.2,429.3,17,20.8,48.3,50.1,87.6,74.8,46.4,29,90.1,42.8,119.9,49.7,29.8-6.9,73.5-20.7,119.9-49.7,39.3-24.6,70.6-53.9,87.6-74.8,89.5-109.7,78.8-346.7-46.2-429.3Z"/>
    <path class="cls-2" d="M616.5,582.9c16.2-23.4,43.6-36.4,71.7-33.9,41.5,3.7,61.1,39.2,62.5,41.8-2.1,2.8-26.1,33.9-67.1,32.5-43.7-1.4-65.8-38.2-67.1-40.5Z"/>
    <ellipse class="cls-8" cx="687.5" cy="584.2" rx="37.2" ry="30.8"/>
    <circle class="cls-11" cx="687.5" cy="574.7" r="21.3"/>
    <circle class="cls-2" cx="664.1" cy="569.3" r="8.4"/>
    <path class="cls-2" d="M998.8,582.9c-16.2-23.4-43.6-36.4-71.7-33.9-41.5,3.7-61.1,39.2-62.5,41.8,2.1,2.8,26.1,33.9,67.1,32.5,43.7-1.4,65.8-38.2,67.1-40.5Z"/>
    <ellipse class="cls-8" cx="927.9" cy="584.2" rx="37.2" ry="30.8"/>
    <circle class="cls-11" cx="927.9" cy="574.7" r="21.3"/>
    <circle class="cls-2" cx="951.2" cy="569.3" r="8.4"/>
    <path class="cls-1" d="M776.6,574.7c7,23.7,6.9,49.4,0,73.1-1,3.4-2.1,6.7-3.4,10,8.8-26.7,9.9-55.8,3.3-83.1h0Z"/>
    <path class="cls-12" d="M776.6,574.7c7,23.7,6.9,49.4,0,73.1-1,3.4-2.1,6.7-3.4,10,8.8-26.7,9.9-55.8,3.3-83.1h0Z"/>
    <path class="cls-12" d="M770.5,682.7c22.3,7.6,45.8,7.3,68-.7-20.3,12-47.4,12.3-68,.7h0Z"/>
    <path class="cls-12" d="M742.5,851.5c25.7-23.6,62.7-35,97.2-29,11.5,2,22.7,5.7,32.8,11.2-23.2-6.8-47.3-9.2-71-5-21,3.6-40.5,12-58.9,22.8h0Z"/>
    <path class="cls-12" d="M838.2,574.7c-6.6,27.4-5.5,56.4,3.3,83.1-1.3-3.3-2.4-6.6-3.4-10-6.9-23.7-6.9-49.4,0-73.1h0Z"/>
    <path class="cls-13" d="M616.5,524.4c8.4-29.3,33.2-51,63.3-55.4,30.1-4.4,60.1,9.2,76.5,34.7-8.9-4.8-36.8-18.2-73.5-12.8-36.6,5.4-59.3,26.3-66.4,33.4Z"/>
    <path class="cls-13" d="M861.8,486.8c5.8,6.7,27.1,29.7,63.5,36,39.6,6.8,69.4-10.9,76.4-15.4-17.5,2.6-42.7,4.5-72.4,0-28.8-4.4-51.7-13.2-67.4-20.6Z"/>
    <path class="cls-13" d="M538.7,611c5.6-25.9,19.7-73.6,58.5-118.1,39.9-45.8,85.8-65.2,110.2-75.2,35.3-14.4,40.1-9.1,161-36.3,53.1-12,54.5-13.5,63.4-12.5,30,3.4,86.1,29.8,139.2,202.3,2.3-28.5,3.4-52.4,4-70.4,1.3-39.3,0-49.7-2.1-59.4-.9-4.3-7-30.8-25-55.4-34-46.7-89.7-58.1-128-66-38-7.8-67-6.8-102.3-5.3-54.3,2.3-96.7,4.1-146.5,23.8-29.2,11.5-119.1,47-138.8,120.9-5.8,21.7-5.2,45.6-4.7,68.5.8,34.8,6.2,63.3,11,83.1Z"/>
    <path class="cls-3" d="M575.1,212.4c67.6,11.9,149.4,21.2,242.3,20.9,84.9-.2,160.3-8.3,223.6-19,1.5,3.6,2.9,7.6,4.3,11.9,1.7,5.6,2.9,10.9,3.6,15.6-23.5,3-56.7,7-96.4,11-67.4,6.8-101,10.2-136.4,10.4-53.8.2-64.7-5.3-138-8.6-49.2-2.2-89.1-1.8-114-1.1.3-6.6,1.3-15,4.2-24.4,2-6.6,4.4-12.2,6.8-16.8Z"/>
    <path class="cls-10" d="M529.3,491.9c-7.8-3.2-16.3-4.8-24.5-2.2-25.2,8.1-32.3,52.1-28.3,81.4,1.4,10.4,6.3,46.6,35.2,60.7,11,5.4,21.9,5.8,29,5.3,1.4-24.4,1.3-52.5-1.8-83.6-2.2-22.5-5.7-43.1-9.7-61.6Z"/>
    <path class="cls-7" d="M489.7,550c5.5-9.3,13.8-18,24.7-20.4,8.6-2,19.2,2.9,20.9,12.2,1.5,8.3-2.2,16.6-4.1,24.4-4.5,15.4-5.6,31.2-3.3,47.2-4.7-15.5-4.5-32.5-.4-48.1,1.6-7.6,5-15.1,3.9-22.7-1.4-7.3-9.6-11-16.6-9.9-10.4,1.8-18.7,9.4-25.3,17.4h0Z"/>
    <path class="cls-10" d="M1050,510.8c2.8-2.9,27.9-28,51.4-21.1,28.2,8.3,31.7,56.5,28.3,81.4-1.4,10.4-6.3,46.6-35.2,60.7-11,5.4-21.9,5.8-29,5.3,2.5-19.8,3.6-46.7-1.9-77.9-3.3-18.8-8.4-35.1-13.5-48.4Z"/>
    <path class="cls-7" d="M1116.5,550c-6.6-7.9-14.8-15.6-25.3-17.4-7-1.1-15.2,2.5-16.6,9.9-1.1,7.6,2.3,15.1,3.9,22.7,4.1,15.7,4.4,32.7-.4,48.1,2.3-16,1.2-31.8-3.3-47.2-1.9-7.8-5.6-16.1-4.1-24.4,1.7-9.3,12.3-14.2,20.9-12.2,10.9,2.4,19.2,11.1,24.7,20.4h0Z"/>
    <path class="cls-6" d="M1356.7,1285.6c-4.9-22.8-12.9-47-12.9-47-4.3-12.8-7.6-21.3-7.6-21.3-3.4-8.5-25.7-63.6-58.7-102-40.2-46.8-79.9-49.5-196-95-35.6-13.9-88.6-35.9-152.4-67.3-42.8,65.2-85.7,130.3-128.5,195.5-42.8-65.2-85.7-130.3-128.5-195.5-63.8,31.4-116.8,53.4-152.4,67.3-116.1,45.5-155.7,48.2-196,95-32.9,38.4-55.3,93.5-58.7,102-7.2,14-17.3,37.6-20.5,68.2-.9,8.4-9.3,99.6,41,133.9,24.9,17,37.5,1.8,87.1,21.1,37.2,14.5,37.7,26,66,36.9,51.1,19.8,71.7-8.9,132-2.6,74.7,7.7,77.5,55.2,139.9,55.4,61.5.2,67.3-45.9,129.3-47.5,69.5-1.8,84.3,55.8,153.1,50.1,47.2-3.9,45.7-31.5,105.6-39.6,59.6-8.1,80.1,16.6,113.5-2.6,33.4-19.3,25.1-51.3,60.7-68.6,34.4-16.8,55.6,6.7,76.5-10.6,29.3-24.2,14.6-92.8,7.5-126Z"/>
    <path class="cls-6" d="M677.1,859.6c13.2,8,28.2,16.1,44.9,23.8,28.9,13.3,56,21.9,79.4,27.6,22.8-5.3,49.9-13.7,79.1-27.5,17.6-8.3,33.1-17.2,46.4-25.8-1,21.8-2,43.5-3,65.3-17.3,8.7-37.2,17.5-59.6,25.5-23.1,8.3-44.7,14.2-64,18.5-20.9-6.6-43.5-14.8-67.3-25.1-20.2-8.7-38.8-17.8-55.6-26.8,0-18.5-.2-36.9-.3-55.4Z"/>
    <path class="cls-14" d="M1086.2,873.7"/>
    <path class="cls-13" d="M960,799.5c-15.5-5.6-39.1-12.4-68.3-13.8-27.6-1.3-31.1,3.6-65.1,5.3-52.2,2.6-64.4-8-109.2-4.3-24.5,2-45.5,7.2-62.4,12.8,0-4.6.5-29,20.2-48.8,19.7-19.7,44.2-20.2,48.8-20.2,17.1,4.6,44,10.2,77.1,10,53.9-.2,77.7-15.6,107.6-3.2,15.3,6.4,35.6,21.5,51.3,62.1Z"/>
    <path class="cls-13" d="M616.5,582.9c23.3-35.7,72.5-46.7,108-22.1,11.2,7.7,20.5,18.1,26.2,30-15.5-18-36.7-31.8-60.6-34.3-27-3.4-53.7,8.4-73.6,26.4h0Z"/>
    <path class="cls-13" d="M998.8,582.9c-19.8-18.1-46.5-29.9-73.6-26.4-23.9,2.6-45.1,16.3-60.6,34.3,5.7-12,15-22.3,26.2-30,35.5-24.5,84.7-13.6,108,22.1h0Z"/>
    <path class="cls-9" d="M562.5,1076.7c.3,36.6-8,73.9-26.2,105.9-6.8,12-15,23.3-24.4,33.4-23.4,24.4-52,41.9-76.9,64.3-37.7,32.6-70.5,70.2-100,110.5,21.2-36,47.1-69.3,76.7-98.8,17.7-17.8,37.2-33.9,57-49.2,19.9-15,39-30.3,53.3-50.6,24.5-33.5,36.6-74.3,40.3-115.4h0Z"/>
    <path class="cls-9" d="M729.6,1161.6c-28.2,35.5-55.3,71.9-80.3,109.7-16.6,24.7-33.5,50.6-47.3,77-21.2,40-37.6,82.2-50.5,125.7,13.2-75.1,47.1-145.4,91.5-207,25.9-37.4,54.6-73.1,86.5-105.5h0Z"/>
    <path class="cls-9" d="M990.5,1076.7c-3.2,41.1,2,83.3,20.5,120.5,18.2,37.5,52,63.9,77,96.7,31.1,39.4,56.3,83.5,74.2,130.4-22.4-44.6-48.4-87.2-80.1-125.6-20.8-26.2-46-48.2-65.1-76.2-7.6-11.5-13.8-24.1-18.5-37-12.6-34.6-14.6-72.8-8.1-108.8h0Z"/>
    <path class="cls-9" d="M841.8,1147.7c13.4.9,27.1,7,34.6,18.7,11.8,18.5,7.6,45.7,5.8,66.5-2.9,26.4-6.2,52.8-7.8,79.3-1.7,35.1-4.7,70.6,1.5,105.3,7.7,44.2,32.8,81.7,67.5,109.6-31.8-20.9-57.2-52.2-69.1-88.6-4.3-12.8-6.9-26.4-8.3-39.7-2.2-20.1-1.7-40.4-.9-60.4.9-17.8,1.9-35.6,3.9-53.3,2.7-26.6,7.8-52.6,10.1-79.1.9-12.9,1.1-26.4-5.3-37.8-6.5-11.5-19.1-18.1-32-20.3h0Z"/>
  </g>
  <path class="cls-9" d="M920.8,1559.7s-7.5-5.7-7.5-5.7c-8.8-5-17.2-10.6-25.8-16-18.2-11.9-35.7-17.4-57.5-13.1-10,2-18.6,7.7-26.9,13.4-16.4,11.8-33.8,22.9-53.6,28.1-30,8-62.9,6.5-91.5-6-8.7-3.9-17-8.7-24.8-14.1-12.6-8.4-24.2-18.5-38.4-24.1-14-5.6-29.4-7.4-44.4-6.9-20.3.7-39.7,7.7-59.9,9.8-10.1,1.1-20.4,1.2-30.5,0-20.2-2.5-39.9-9.4-57.4-19.8-8.8-5.1-16.6-11.8-25.1-17.1-12.9-7.6-27.4-12.9-42.1-15.8-9.9-1.8-20.1-1.5-30.2-2.8-25.7-2.6-48.9-17.4-65.2-37-37.3-44.7-43.3-119.9-32-175.2,4.1-19.7,11.3-39.9,20.2-57.4,20.6-49.2,46.6-98.4,86.9-134.2,24.4-21.4,54.6-34.6,84.8-45.8,80.7-28.6,160.6-59.1,237.6-96.7,0,0-1.2,1.9-1.2,1.9,0-7.5,0-15.1,0-22.6,0,0-.1-22.6-.1-22.6l.9,1.7c-14.6-10.5-28.7-21.8-41.9-34-41.2-36.3-69.4-83.5-84.7-136.1,0,0,.9,1.2.9,1.2-53.4-35-102.2-77.8-142-127.8-4.2-5.8-8.2-11.8-11.8-17.9-7.2-12.3-13.2-25.4-17.9-38.9-6.1-16.7-9-34.5-12.1-51.9-4.8-24.4-9.7-49.2-7.5-74.3,4.2-58.3,44.8-107.2,92.7-137.5,17.9-11.6,37.1-21.3,56.8-29.5,19.8-8,40.1-15,61-19.6,0,0-1.8,1.7-1.8,1.7,1.8-6.2,4.2-12.2,6.7-18.2,8-21.5,19.4-42,33.1-60.4C658,18.1,840.3-8.8,967.4,66.1c51,29.4,93.1,75.4,114.3,130.7,0,0-2.5-1.5-2.5-1.5,23.5-2.6,47-5.8,70.7-6.4,15.9-.3,32.4,1.3,47.2,7.6,12.9,5.4,24.6,13.9,34.8,23.4,44.1,41.8,57.9,104.6,63.2,162.9,2.7,29.6-1,59.4-4.6,88.7-2.1,15.6-4.6,31.5-9.1,46.6-8.9,30.5-24.5,59.1-45.8,82.7-40,45.6-95,93.3-143.6,120.4-22.5,70.4-64.1,117.3-123.2,159.9,0,0,.8-1.4.8-1.4-.5,10.5-1.4,29.5-1.8,39.8,0,1.6-.2,4.1-.2,5.6,0,0-1-1.6-1-1.6,67.2,32.4,136.3,60.7,206.7,85.5,46.7,16.6,96,33.2,130.2,71,25.6,27.5,44.6,60.3,60.7,94.1,10.8,22.5,19.5,46,26.3,70,15.2,57.3,38.8,151.2-10.5,196.6-11.5,10.8-26.7,17.4-42.4,18.6-9.4.8-18.8-.4-28-1.7-6-.8-12.3-1.4-17.8,1.7-5.9,2.5-8.6,8.4-11.5,13.7-14.3,29.7-34.2,51.7-66.4,62.1-26.1,8.3-48.2,2-74-1.6-18.4-2.1-37.5-.8-55.2,5-11.9,4-21.7,12-32.5,18.1-16.1,9.5-34.4,15-53,16.6,18.6-1.7,36.8-7.3,52.9-16.8,10.7-6.2,20.6-14.3,32.5-18.3,17.7-5.9,36.9-7.3,55.4-5.3,12.4,1.4,24.6,4.3,36.9,5.2,12.3,1,24.9,0,36.7-3.8,23.7-7.5,44.1-24.1,56.7-45.4,5-7.9,8.5-16.6,13.7-24.5,3.7-5.3,10.1-8.4,16.5-8.7,9.4,0,18.6,2.4,27.9,2.5,6.2.2,12.3-.3,18.4-1.6,12-2.6,23.3-8.5,32.2-17,41.5-39.1,29.1-108.5,18.5-158.6-3.8-18.2-8.9-36.2-14.6-53.9-5.8-17.7-12.8-35-20.8-51.7-21.5-44.1-47.8-88.5-88.3-117.6-20.2-14.4-43.2-24.2-66.3-33-82.1-29.1-163.8-59.7-242.2-97.9,0,0-1-.5-1-.5,0,0,0-1.1,0-1.1,0-3.3.3-8.1.4-11.4.3-7.2,1.2-26.7,1.5-34.2,0,0,0-.9,0-.9l.7-.5c58.3-42.2,99.4-88.6,121.5-158.2,0,0,.2-.7.2-.7,0,0,.6-.4.6-.4,59.9-36.9,114.7-83.5,157.9-139.1,13.6-19,23.7-40.4,30.2-62.8,4.5-14.9,6.8-30.5,8.9-46,3.4-27.1,6.6-54.5,5-81.9-4.8-58.3-17.3-121.1-60.3-163.8-1.9-1.7-4.4-4.2-6.4-5.9-7.2-6.1-15.3-12-23.8-16.2-22.9-11.5-48.9-10.4-73.9-8.2-16.2,1.4-32.5,3.4-48.7,5.2-41.7-111.5-164-176-279.7-170.8-107.9,2.5-217.9,65.5-257.5,168.8-2.8,7.2-5.9,14.2-8,21.7-14.2,3-28.1,7.3-41.8,12.1-39.6,14.1-77.8,33.8-109.1,62.1-44.1,40.1-65.1,90.5-55.4,150.1,2.6,17.1,6.5,35,9.4,52.1,4.6,24,13.2,47.4,25.5,68.5,7.1,12.1,15.4,23.3,24.8,33.8,37.3,42.3,80.1,79.8,127.4,110.5l.7.4s.2.8.2.8c21.9,74.9,62.4,122.9,124.8,167.9,0,0,.9.6.9.6,0,15.4.2,30.9.1,46.3,0,0,0,1.3,0,1.3s-1.2.6-1.2.6c-77.1,37.5-157.3,67.9-238.1,96.3-29.8,11.1-59.6,23.9-83.8,45-24.1,21-42.7,47.6-58.4,75.2-10.5,18.6-19.8,37.9-27.8,57.6-13.7,26.9-22.1,56.5-24.4,86.7-3.1,49.4,3.4,103.5,35.4,143.1,15.9,19.2,38.4,33.7,63.5,36.3,10,1.3,20.3,1,30.3,2.9,10.1,1.8,19.8,5.2,29.2,9.2,4.7,2,9.3,4.3,13.7,7,8.6,5.4,16.3,12,25,17.2,25.9,15.4,56.6,23.3,86.7,19.8,20.2-2,39.6-9,60-9.6,20.3-.6,41.3,3.1,58.6,14.1,12.9,8.1,24.4,18,37.8,25.4,4.3,2.6,9,4.7,13.5,6.7,27.9,11.8,59.9,13.1,89,5.5,19.7-5.2,37-16.1,53.5-27.8,8.3-5.7,17.1-11.4,27.1-13.4,15-2.9,30.9-1.1,44.5,5.9,13.6,6.9,25.7,16.2,39,23.6,0,0,7.5,5.7,7.5,5.7h0Z"/>
</svg>