<svg width="36" height="32" viewBox="0 0 36 32" fill="none" xmlns="http://www.w3.org/2000/svg">
<path d="M9.17967 11.194C10.3052 7.68225 13.602 5.13885 17.4959 5.13885C21.3898 5.13885 24.6839 7.68088 25.8108 11.1912C27.6074 10.5954 29.3465 10.3133 30.8864 10.2051C29.2819 4.32392 23.8961 0 17.4959 0C11.0957 0 5.70713 4.32666 4.104 10.2078C5.644 10.3174 7.38301 10.5996 9.17967 11.194Z" fill="#44175B"/>
<path d="M17.5879 32C16.6326 32 15.8132 31.9329 15.1901 31.8589C14.8634 29.1717 14.6726 22.3866 19.8924 17.1039C23.973 12.9731 28.9937 12.1061 32.4869 12.1061C33.4284 12.1061 34.2382 12.1705 34.8545 12.2431C35.1825 14.9728 35.3596 21.8771 29.9792 27.1693C25.9206 31.1618 21.0001 32 17.5879 32Z" fill="#44175B"/>
<path d="M12.3885 31.3659C9.55283 30.6112 7.07539 29.2032 5.01109 27.1734C-0.369284 21.8812 -0.190853 14.9783 0.137185 12.2486C0.750712 12.1746 1.56051 12.1116 2.50482 12.1116C5.99795 12.1116 11.0187 12.9786 15.0993 17.108C15.3258 17.3368 15.5454 17.5723 15.7622 17.8202C12.3089 22.8577 12.1456 28.376 12.3899 31.3659H12.3885Z" fill="#44175B"/>
</svg>
