<svg width="134" height="32" viewBox="0 0 134 32" fill="none" xmlns="http://www.w3.org/2000/svg">
<path d="M9.17967 11.194C10.3052 7.68225 13.602 5.13885 17.4959 5.13885C21.3898 5.13885 24.6839 7.68088 25.8108 11.1912C27.6074 10.5954 29.3465 10.3133 30.8864 10.2051C29.2819 4.32392 23.8961 0 17.4959 0C11.0957 0 5.70713 4.32666 4.104 10.2078C5.644 10.3174 7.38301 10.5996 9.17967 11.194Z" fill="#44175B"/>
<path d="M17.5879 32C16.6326 32 15.8132 31.9329 15.1901 31.8589C14.8634 29.1717 14.6726 22.3866 19.8924 17.1039C23.973 12.9731 28.9937 12.1061 32.4869 12.1061C33.4284 12.1061 34.2382 12.1705 34.8545 12.2431C35.1825 14.9728 35.3596 21.8771 29.9792 27.1693C25.9206 31.1618 21.0001 32 17.5879 32Z" fill="#44175B"/>
<path d="M12.3885 31.3659C9.55283 30.6112 7.07539 29.2032 5.01109 27.1734C-0.369284 21.8812 -0.190853 14.9783 0.137185 12.2486C0.750712 12.1746 1.56051 12.1116 2.50482 12.1116C5.99795 12.1116 11.0187 12.9786 15.0993 17.108C15.3258 17.3368 15.5454 17.5723 15.7622 17.8202C12.3089 22.8577 12.1456 28.376 12.3899 31.3659H12.3885Z" fill="#44175B"/>
<path d="M49.5913 24.4054H55.8213V28.0691H44.8354V8.58618H49.5913V24.4054Z" fill="#44175B"/>
<path d="M61.0634 27.3199C59.8487 26.6721 58.8934 25.7476 58.1989 24.5451C57.503 23.3425 57.1558 21.9359 57.1558 20.3266C57.1558 18.7173 57.5071 17.334 58.2126 16.1218C58.9167 14.9097 59.8816 13.9811 61.1046 13.3319C62.3289 12.6841 63.7 12.3608 65.2208 12.3608C66.7416 12.3608 68.1128 12.6854 69.3371 13.3319C70.5614 13.9797 71.5249 14.9097 72.229 16.1218C72.9331 17.334 73.2859 18.7351 73.2859 20.3266C73.2859 21.9181 72.929 23.3192 72.2153 24.5314C71.5016 25.7435 70.5285 26.6735 69.2945 27.3213C68.0606 27.9691 66.684 28.2924 65.1645 28.2924C63.6451 28.2924 62.2767 27.9691 61.062 27.3213L61.0634 27.3199ZM67.4883 23.1836C68.1279 22.518 68.4477 21.5647 68.4477 20.3252C68.4477 19.0857 68.1375 18.1325 67.5157 17.4668C66.894 16.8012 66.1294 16.4684 65.2208 16.4684C64.3122 16.4684 63.5244 16.7971 62.9122 17.4531C62.3001 18.1105 61.994 19.0679 61.994 20.3252C61.994 21.5825 62.2946 22.518 62.8985 23.1836C63.501 23.8493 64.2559 24.1821 65.1645 24.1821C66.0732 24.1821 66.8473 23.8493 67.4869 23.1836H67.4883Z" fill="#44175B"/>
<path d="M78.7797 27.3199C77.565 26.6721 76.6097 25.7476 75.9152 24.5451C75.2193 23.3425 74.8721 21.9359 74.8721 20.3266C74.8721 18.7173 75.2234 17.334 75.9289 16.1218C76.633 14.9097 77.5979 13.9811 78.8209 13.3319C80.0452 12.6841 81.4164 12.3608 82.9371 12.3608C84.4579 12.3608 85.8291 12.6854 87.0534 13.3319C88.2777 13.9797 89.2412 14.9097 89.9453 16.1218C90.6495 17.334 91.0022 18.7351 91.0022 20.3266C91.0022 21.9181 90.6453 23.3192 89.9316 24.5314C89.2179 25.7435 88.2448 26.6735 87.0108 27.3213C85.7769 27.9691 84.4003 28.2924 82.8809 28.2924C81.3615 28.2924 79.993 27.9691 78.7783 27.3213L78.7797 27.3199ZM85.2046 23.1836C85.8442 22.518 86.164 21.5647 86.164 20.3252C86.164 19.0857 85.8538 18.1325 85.232 17.4668C84.6103 16.8012 83.8458 16.4684 82.9371 16.4684C82.0285 16.4684 81.2407 16.7971 80.6285 17.4531C80.0164 18.1105 79.7103 19.0679 79.7103 20.3252C79.7103 21.5825 80.0109 22.518 80.6148 23.1836C81.2173 23.8493 81.9722 24.1821 82.8809 24.1821C83.7895 24.1821 84.5636 23.8493 85.2032 23.1836H85.2046Z" fill="#44175B"/>
<path d="M93.5757 16.1068C94.2332 14.9042 95.1514 13.9797 96.329 13.3319C97.5067 12.6841 98.8559 12.3608 100.375 12.3608C102.322 12.3608 103.949 12.8703 105.256 13.8866C106.563 14.9042 107.421 16.3382 107.828 18.1886H102.766C102.339 17.0053 101.515 16.4122 100.29 16.4122C99.4186 16.4122 98.7228 16.7505 98.2039 17.4257C97.6851 18.101 97.4257 19.0679 97.4257 20.3252C97.4257 21.5825 97.6851 22.5509 98.2039 23.2261C98.7228 23.9013 99.4186 24.2396 100.29 24.2396C101.515 24.2396 102.339 23.6479 102.766 22.4632H107.828C107.421 24.2766 106.559 25.701 105.242 26.7378C103.926 27.7746 102.304 28.2924 100.375 28.2924C98.8545 28.2924 97.5053 27.9691 96.329 27.3213C95.1514 26.6735 94.2332 25.749 93.5757 24.5464C92.9169 23.3439 92.5889 21.9373 92.5889 20.328C92.5889 18.7187 92.9183 17.312 93.5757 16.1095V16.1068Z" fill="#44175B"/>
<path d="M110.318 16.1068C110.921 14.9042 111.741 13.9797 112.779 13.3319C113.817 12.6841 114.977 12.3608 116.256 12.3608C117.35 12.3608 118.309 12.5827 119.134 13.0265C119.959 13.4702 120.594 14.0537 121.039 14.7755V12.5827H125.795V28.0691H121.039V25.8763C120.575 26.5981 119.931 27.1802 119.106 27.6253C118.282 28.0691 117.322 28.291 116.228 28.291C114.967 28.291 113.818 27.9623 112.779 27.3062C111.74 26.6502 110.921 25.7147 110.318 24.5026C109.716 23.2905 109.414 21.8893 109.414 20.2978C109.414 18.7063 109.714 17.3107 110.318 16.1068ZM120.054 17.523C119.395 16.8382 118.593 16.4957 117.647 16.4957C116.702 16.4957 115.9 16.834 115.241 17.5093C114.583 18.1845 114.255 19.1145 114.255 20.2978C114.255 21.4812 114.584 22.4208 115.241 23.1152C115.899 23.8096 116.702 24.1561 117.647 24.1561C118.593 24.1561 119.395 23.8137 120.054 23.1289C120.711 22.444 121.04 21.51 121.04 20.3252C121.04 19.1405 120.711 18.2064 120.054 17.5216V17.523Z" fill="#44175B"/>
<path d="M134 7.53156V28.0691H129.244V7.53156H134Z" fill="#44175B"/>
</svg>
